Diabolik-Léger.ufo
<glyph name="exclam" format="2">
  <advance width="215"/>
  <unicode hex="0021"/>
  <outline>
    <contour>
      <point x="115" y="0" type="line"/>
      <point x="115" y="40" type="line"/>
      <point x="75" y="40" type="line"/>
      <point x="75" y="0" type="line"/>
    </contour>
    <contour>
      <point x="85" y="130" type="line"/>
      <point x="85" y="700" type="line"/>
      <point x="105" y="700" type="line"/>
      <point x="105" y="130" type="line"/>
    </contour>
  </outline>
</glyph>
<glyph name="quotesingle" format="2">
  <advance width="160"/>
  <unicode hex="0027"/>
  <outline>
    <contour>
      <point x="90" y="650" type="line"/>
      <point x="90" y="700" type="line"/>
      <point x="60" y="700" type="line"/>
      <point x="60" y="650" type="line"/>
      <point x="40" y="575" type="line"/>
      <point x="70" y="575" type="line"/>
    </contour>
  </outline>
</glyph>
<glyph name="zero" format="2">
  <advance width="486"/>
  <unicode hex="0030"/>
  <outline>
    <contour>
      <point x="127" y="704" type="line"/>
      <point x="206" y="704" type="line"/>
      <point x="422" y="704"/>
      <point x="441" y="450"/>
      <point x="441" y="303" type="curve"/>
      <point x="361" y="-3" type="line"/>
      <point x="281" y="-3" type="line"/>
      <point x="64" y="-3"/>
      <point x="45" y="251"/>
      <point x="45" y="399" type="curve"/>
    </contour>
    <contour>
      <point x="142" y="684" type="line"/>
      <point x="66" y="400" type="line"/>
      <point x="66" y="238"/>
      <point x="88" y="17"/>
      <point x="281" y="17" type="curve"/>
      <point x="345" y="17" type="line"/>
      <point x="420" y="301" type="line"/>
      <point x="420" y="462"/>
      <point x="398" y="684"/>
      <point x="206" y="684" type="curve"/>
    </contour>
  </outline>
</glyph>
<glyph name="four" format="2">
  <advance width="445"/>
  <unicode hex="0034"/>
  <outline>
    <contour>
      <point x="313" y="700" type="line"/>
      <point x="20.2343" y="231" type="line"/>
      <point x="20.2343" y="211" type="line"/>
      <point x="312.983" y="211" type="line"/>
      <point x="313" y="0" type="line"/>
      <point x="333" y="0" type="line"/>
      <point x="332.699" y="210.708" type="line"/>
      <point x="443.93" y="210.626" type="line"/>
      <point x="444.22" y="231.056" type="line"/>
      <point x="332.58" y="231.04" type="line"/>
      <point x="333" y="700" type="line"/>
    </contour>
    <contour>
      <point x="44.0811" y="231" type="line"/>
      <point x="57.864" y="253.039" type="line"/>
      <point x="298.891" y="638.439" type="line"/>
      <point x="313" y="661" type="line"/>
      <point x="313.347" y="231" type="line"/>
    </contour>
  </outline>
</glyph>
<glyph name="five" format="2">
  <advance width="347"/>
  <unicode hex="0035"/>
  <outline>
    <contour>
      <point x="271.107" y="700.999" type="line"/>
      <point x="271.107" y="681.4" type="line"/>
      <point x="62" y="681.4" type="line"/>
      <point x="61.8997" y="658.098" type="line"/>
      <point x="61" y="449.069" type="line"/>
      <point x="239.486" y="440.069"/>
      <point x="301.007" y="332.971"/>
      <point x="301.007" y="219.999" type="curve" smooth="yes"/>
      <point x="301.007" y="114.597"/>
      <point x="225.99" y="-5"/>
      <point x="46" y="-5" type="curve"/>
      <point x="46" y="15.0599" type="line"/>
      <point x="206.266" y="15.0599"/>
      <point x="280.943" y="120.054"/>
      <point x="280.943" y="219.999" type="curve" smooth="yes"/>
      <point x="280.943" y="328.4"/>
      <point x="219.63" y="427.069"/>
      <point x="40.6465" y="430.069" type="curve"/>
      <point x="40.9457" y="658.099" type="line"/>
      <point x="41.002" y="700.999" type="line"/>
    </contour>
  </outline>
</glyph>
<glyph name="seven" format="2">
  <advance width="290"/>
  <unicode hex="0037"/>
  <outline>
    <contour>
      <point x="0" y="700" type="line"/>
      <point x="220.286" y="700" type="line"/>
      <point x="250" y="700" type="line"/>
      <point x="130" y="0" type="line"/>
      <point x="109" y="0" type="line"/>
      <point x="226" y="680" type="line"/>
      <point x="210.247" y="680" type="line"/>
      <point x="0" y="680" type="line"/>
    </contour>
  </outline>
</glyph>
<glyph name="colon" format="2">
  <advance width="190"/>
  <unicode hex="003A"/>
  <outline>
    <contour>
      <point x="110" y="112" type="line"/>
      <point x="110" y="152" type="line"/>
      <point x="70" y="152" type="line"/>
      <point x="70" y="112" type="line"/>
    </contour>
    <contour>
      <point x="110" y="272" type="line"/>
      <point x="110" y="312" type="line"/>
      <point x="70" y="312" type="line"/>
      <point x="70" y="272" type="line"/>
    </contour>
  </outline>
</glyph>
<glyph name="question" format="2">
  <advance width="421"/>
  <unicode hex="003F"/>
  <outline>
    <contour>
      <point x="130" y="0" type="line"/>
      <point x="130" y="40" type="line"/>
      <point x="90" y="40" type="line"/>
      <point x="90" y="0" type="line"/>
    </contour>
    <contour>
      <point x="100" y="130" type="line"/>
      <point x="100" y="287.599" type="line"/>
      <point x="153.8" y="354.661"/>
      <point x="298.135" y="525.748"/>
      <point x="299.03" y="623" type="curve" smooth="yes"/>
      <point x="299.61" y="686.001"/>
      <point x="196.383" y="679.94"/>
      <point x="80" y="679.94" type="curve"/>
      <point x="80" y="700" type="line"/>
      <point x="249.958" y="700"/>
      <point x="319.958" y="700"/>
      <point x="320.001" y="619" type="curve" smooth="yes"/>
      <point x="320.054" y="519.744"/>
      <point x="188.8" y="365.662"/>
      <point x="120" y="278.599" type="curve"/>
      <point x="120" y="130.001" type="line"/>
    </contour>
  </outline>
</glyph>
<glyph name="B" format="2">
  <advance width="523"/>
  <unicode hex="0042"/>
  <outline>
    <contour>
      <point x="40" y="700" type="line"/>
      <point x="140" y="721"/>
      <point x="243" y="721"/>
      <point x="343" y="700" type="curve"/>
      <point x="431" y="570" type="line"/>
      <point x="431" y="482"/>
      <point x="423" y="426"/>
      <point x="362" y="393" type="curve"/>
      <point x="491" y="260" type="line"/>
      <point x="491" y="110"/>
      <point x="473" y="0"/>
      <point x="253" y="0" type="curve" smooth="yes"/>
      <point x="40" y="0" type="line"/>
    </contour>
    <contour>
      <point x="60" y="404" type="line"/>
      <point x="302" y="404" type="line"/>
      <point x="350" y="405"/>
      <point x="416" y="420"/>
      <point x="410" y="566" type="curve"/>
      <point x="332" y="680" type="line"/>
      <point x="242" y="701"/>
      <point x="150" y="700"/>
      <point x="60" y="683" type="curve"/>
    </contour>
    <contour>
      <point x="60" y="20" type="line"/>
      <point x="253" y="20" type="line" smooth="yes"/>
      <point x="437" y="20"/>
      <point x="471" y="100"/>
      <point x="471" y="251" type="curve"/>
      <point x="342" y="384" type="line"/>
      <point x="60" y="384" type="line"/>
    </contour>
  </outline>
</glyph>
<glyph name="D" format="2">
  <advance width="536"/>
  <unicode hex="0044"/>
  <outline>
    <contour>
      <point x="40" y="700" type="line"/>
      <point x="166" y="734"/>
      <point x="295" y="734"/>
      <point x="413" y="700" type="curve"/>
      <point x="491" y="389" type="line"/>
      <point x="491" y="239"/>
      <point x="473" y="0"/>
      <point x="253" y="0" type="curve" smooth="yes"/>
      <point x="40" y="0" type="line"/>
    </contour>
    <contour>
      <point x="60" y="20" type="line"/>
      <point x="253" y="20" type="line" smooth="yes"/>
      <point x="446" y="20"/>
      <point x="471" y="224"/>
      <point x="471" y="388" type="curve"/>
      <point x="396" y="684" type="line"/>
      <point x="308" y="711"/>
      <point x="180" y="714"/>
      <point x="60" y="685.274" type="curve"/>
    </contour>
  </outline>
</glyph>
<glyph name="J" format="2">
  <advance width="406"/>
  <unicode hex="004A"/>
  <outline>
    <contour>
      <point x="346" y="700" type="line"/>
      <point x="366" y="700" type="line"/>
      <point x="366" y="0" type="line"/>
      <point x="305.341" y="-17.6275"/>
      <point x="248.445" y="-26.1159"/>
      <point x="190.156" y="-25.4653" type="curve" smooth="yes"/>
      <point x="136.016" y="-24.861"/>
      <point x="80.6747" y="-16.3726"/>
      <point x="20" y="0" type="curve"/>
      <point x="21" y="21" type="line"/>
      <point x="82.1476" y="4.49984"/>
      <point x="138.114" y="-3.99281"/>
      <point x="190.156" y="-5.04941" type="curve" smooth="yes"/>
      <point x="245.351" y="-6.17001"/>
      <point x="296.133" y="1.07372"/>
      <point x="344" y="16" type="curve"/>
    </contour>
  </outline>
</glyph>
<glyph name="K" format="2">
  <advance width="443"/>
  <unicode hex="004B"/>
  <outline>
    <contour>
      <point x="60" y="0" type="line"/>
      <point x="60" y="269" type="line"/>
      <point x="138" y="367" type="line"/>
      <point x="397" y="0" type="line"/>
      <point x="423" y="0" type="line"/>
      <point x="152" y="384" type="line"/>
      <point x="403" y="700" type="line"/>
      <point x="377" y="700" type="line"/>
      <point x="60" y="302" type="line"/>
      <point x="60" y="700" type="line"/>
      <point x="40" y="700" type="line"/>
      <point x="40" y="0" type="line"/>
    </contour>
  </outline>
</glyph>
<glyph name="M" format="2">
  <advance width="627"/>
  <unicode hex="004D"/>
  <outline>
    <contour>
      <point x="321" y="200" type="line"/>
      <point x="301" y="200" type="line"/>
      <point x="55" y="656" type="line"/>
      <point x="55" y="0" type="line"/>
      <point x="35" y="0" type="line"/>
      <point x="35" y="700" type="line"/>
      <point x="55" y="700" type="line"/>
      <point x="311" y="225" type="line"/>
      <point x="567" y="700" type="line"/>
      <point x="587" y="700" type="line"/>
      <point x="587" y="0" type="line"/>
      <point x="567" y="0" type="line"/>
      <point x="567" y="656" type="line"/>
    </contour>
  </outline>
</glyph>
<glyph name="P" format="2">
  <advance width="496"/>
  <unicode hex="0050"/>
  <outline>
    <contour>
      <point x="60" y="354" type="line"/>
      <point x="292" y="354" type="line"/>
      <point x="369" y="355"/>
      <point x="430" y="397"/>
      <point x="430" y="526" type="curve"/>
      <point x="352" y="680" type="line"/>
      <point x="60" y="680" type="line"/>
    </contour>
    <contour>
      <point x="291" y="334" type="curve"/>
      <point x="60" y="334" type="line"/>
      <point x="60" y="0" type="line"/>
      <point x="40" y="0" type="line"/>
      <point x="40" y="700" type="line"/>
      <point x="363" y="700" type="line"/>
      <point x="451" y="530" type="line"/>
      <point x="451" y="423"/>
      <point x="420" y="334"/>
    </contour>
  </outline>
</glyph>
<glyph name="R" format="2">
  <advance width="471"/>
  <unicode hex="0052"/>
  <outline>
    <contour>
      <point x="271" y="334" type="curve" smooth="yes"/>
      <point x="213.237" y="334" type="line"/>
      <point x="451" y="0" type="line"/>
      <point x="426" y="0" type="line"/>
      <point x="188.137" y="334" type="line"/>
      <point x="60" y="334" type="line"/>
      <point x="60" y="0" type="line"/>
      <point x="40" y="0" type="line"/>
      <point x="40" y="700" type="line"/>
      <point x="343" y="700" type="line"/>
      <point x="431" y="530" type="line"/>
      <point x="431" y="423"/>
      <point x="400" y="334"/>
    </contour>
    <contour>
      <point x="60" y="354" type="line"/>
      <point x="272" y="354" type="line"/>
      <point x="349" y="355"/>
      <point x="410" y="397"/>
      <point x="410" y="526" type="curve"/>
      <point x="332" y="680" type="line"/>
      <point x="60" y="680" type="line"/>
    </contour>
  </outline>
</glyph>
<glyph name="S" format="2">
  <advance width="547"/>
  <unicode hex="0053"/>
  <outline>
    <contour>
      <point x="35" y="388" type="line"/>
      <point x="117" y="700" type="line"/>
      <point x="234" y="729"/>
      <point x="335" y="729"/>
      <point x="461" y="700" type="curve"/>
      <point x="461" y="679" type="line"/>
      <point x="339" y="707"/>
      <point x="239" y="710"/>
      <point x="134" y="684" type="curve"/>
      <point x="60" y="404" type="line"/>
      <point x="512" y="320" type="line"/>
      <point x="431" y="0" type="line"/>
      <point x="314" y="-31"/>
      <point x="161" y="-31"/>
      <point x="35" y="0" type="curve"/>
      <point x="36" y="21" type="line"/>
      <point x="162" y="-9"/>
      <point x="321" y="-9"/>
      <point x="414" y="16" type="curve"/>
      <point x="487" y="304" type="line"/>
    </contour>
  </outline>
</glyph>
<glyph name="T" format="2">
  <advance width="440"/>
  <unicode hex="0054"/>
  <outline>
    <contour>
      <point x="20" y="680" type="line"/>
      <point x="20" y="700" type="line"/>
      <point x="420" y="700" type="line"/>
      <point x="420" y="680" type="line"/>
      <point x="230" y="680" type="line"/>
      <point x="230" y="0" type="line"/>
      <point x="210" y="0" type="line"/>
      <point x="210" y="680" type="line"/>
    </contour>
  </outline>
</glyph>
<glyph name="W" format="2">
  <advance width="858"/>
  <unicode hex="0057"/>
  <outline>
    <contour>
      <point x="238" y="0" type="line"/>
      <point x="258" y="0" type="line"/>
      <point x="429" y="630" type="line"/>
      <point x="607" y="0" type="line"/>
      <point x="627" y="0" type="line"/>
      <point x="838" y="700" type="line"/>
      <point x="817" y="700" type="line"/>
      <point x="617" y="39" type="line"/>
      <point x="439" y="670" type="line"/>
      <point x="419" y="670" type="line"/>
      <point x="248" y="39" type="line"/>
      <point x="41" y="700" type="line"/>
      <point x="20" y="700" type="line"/>
    </contour>
  </outline>
</glyph>
<glyph name="Z" format="2">
  <advance width="499"/>
  <unicode hex="005A"/>
  <outline>
    <contour>
      <point x="457" y="700" type="curve"/>
      <point x="252.063" y="343.948" type="line"/>
      <point x="65" y="17" type="line"/>
      <point x="166" y="-1"/>
      <point x="344" y="1"/>
      <point x="469" y="19" type="curve"/>
      <point x="469" y="0" type="line"/>
      <point x="344" y="-21"/>
      <point x="147" y="-21"/>
      <point x="30" y="0" type="curve"/>
      <point x="232.041" y="350" type="line"/>
      <point x="422" y="683" type="line"/>
      <point x="316" y="705"/>
      <point x="183" y="700"/>
      <point x="71" y="679" type="curve"/>
      <point x="71" y="700" type="line"/>
      <point x="197" y="723"/>
      <point x="340" y="723"/>
    </contour>
  </outline>
</glyph>
<glyph name="bracketright" format="2">
  <advance width="270"/>
  <unicode hex="005D"/>
  <outline>
    <contour>
      <point x="190" y="820" type="line"/>
      <point x="10" y="820" type="line"/>
      <point x="10" y="800" type="line"/>
      <point x="170" y="800" type="line"/>
      <point x="170" y="770.41" type="line"/>
      <point x="170" y="-36.9566" type="line"/>
      <point x="170" y="-67" type="line"/>
      <point x="10" y="-67" type="line"/>
      <point x="10" y="-87" type="line"/>
      <point x="190" y="-87" type="line"/>
      <point x="190" y="-37.4198" type="line"/>
      <point x="190" y="769.656" type="line"/>
    </contour>
  </outline>
</glyph>
<glyph name="asciicircum" format="2">
  <advance width="437"/>
  <unicode hex="005E"/>
  <outline>
    <contour>
      <point x="50.6591" y="200" type="line"/>
      <point x="71.6591" y="199.636" type="line"/>
      <point x="218.659" y="679" type="line"/>
      <point x="366" y="200" type="line"/>
      <point x="387" y="200" type="line"/>
      <point x="234" y="700" type="line"/>
      <point x="204" y="700" type="line"/>
    </contour>
  </outline>
</glyph>
<glyph name="a" format="2">
  <advance width="459"/>
  <unicode hex="0061"/>
  <outline>
    <contour>
      <point x="429" y="500" type="line"/>
      <point x="409" y="500" type="line"/>
      <point x="360" y="82" type="line"/>
      <point x="311" y="500" type="line"/>
      <point x="235" y="522"/>
      <point x="170" y="522"/>
      <point x="90" y="500" type="curve"/>
      <point x="32" y="284" type="line"/>
      <point x="33" y="177"/>
      <point x="44" y="0"/>
      <point x="192" y="0" type="curve" smooth="yes"/>
      <point x="288" y="0"/>
      <point x="328" y="106"/>
      <point x="339" y="157" type="curve"/>
      <point x="337" y="213" type="line"/>
      <point x="317" y="133"/>
      <point x="283" y="20"/>
      <point x="192" y="20" type="curve" smooth="yes"/>
      <point x="67" y="20"/>
      <point x="54" y="172"/>
      <point x="52" y="284" type="curve"/>
      <point x="106" y="482" type="line"/>
      <point x="168" y="501"/>
      <point x="237" y="501"/>
      <point x="293" y="482" type="curve"/>
      <point x="350" y="0" type="line"/>
      <point x="370" y="0" type="line"/>
    </contour>
  </outline>
</glyph>
<glyph name="i" format="2">
  <advance width="170"/>
  <unicode hex="0069"/>
  <outline>
    <contour>
      <point x="92" y="500" type="line"/>
      <point x="79.13" y="428.72"/>
      <point x="65.87" y="355.28"/>
      <point x="53" y="284" type="curve"/>
      <point x="59.6" y="190.28"/>
      <point x="66.4" y="93.72"/>
      <point x="73" y="0" type="curve"/>
      <point x="53" y="0" type="line"/>
      <point x="46.4" y="93.72"/>
      <point x="39.6" y="190.28"/>
      <point x="33" y="284" type="curve"/>
      <point x="45.54" y="355.28"/>
      <point x="58.46" y="428.72"/>
      <point x="71" y="500" type="curve"/>
    </contour>
    <contour>
      <point x="115" y="615" type="line"/>
      <point x="140" y="750" type="line"/>
      <point x="109" y="750" type="line"/>
      <point x="85" y="615" type="line"/>
    </contour>
  </outline>
</glyph>
<glyph name="j" format="2">
  <advance width="248"/>
  <unicode hex="006A"/>
  <outline>
    <contour>
      <point x="-100" y="-227" type="curve"/>
      <point x="-100" y="-207" type="line"/>
      <point x="-20" y="-234"/>
      <point x="83" y="-236"/>
      <point x="149" y="-211" type="curve"/>
      <point x="137.45" y="-47.65"/>
      <point x="125.55" y="120.65"/>
      <point x="114" y="284" type="curve"/>
      <point x="126.54" y="355.28"/>
      <point x="139.46" y="428.72"/>
      <point x="152" y="500" type="curve"/>
      <point x="173" y="500" type="line"/>
      <point x="160.13" y="428.72"/>
      <point x="146.87" y="355.28"/>
      <point x="134" y="284" type="curve"/>
      <point x="145.88" y="115.37"/>
      <point x="158.12" y="-58.37"/>
      <point x="170" y="-227" type="curve"/>
      <point x="86" y="-258"/>
      <point x="-10" y="-258"/>
    </contour>
    <contour>
      <point x="193" y="615" type="line"/>
      <point x="218" y="750" type="line"/>
      <point x="187" y="750" type="line"/>
      <point x="163" y="615" type="line"/>
    </contour>
  </outline>
</glyph>
<glyph name="k" format="2">
  <advance width="467"/>
  <unicode hex="006B"/>
  <outline>
    <contour>
      <point x="33" y="750" type="line"/>
      <point x="120" y="0" type="line"/>
      <point x="140" y="0" type="line"/>
      <point x="196" y="465" type="line"/>
      <point x="265.3" y="311.55"/>
      <point x="336.7" y="153.45"/>
      <point x="406" y="0" type="curve"/>
      <point x="428" y="0" type="line"/>
      <point x="355.73" y="159.72"/>
      <point x="281.27" y="324.28"/>
      <point x="209" y="484" type="curve"/>
      <point x="237.882" y="491.576"/>
      <point x="275.058" y="495.116"/>
      <point x="314.585" y="494.833" type="curve" smooth="yes"/>
      <point x="358.541" y="494.519"/>
      <point x="405.404" y="489.477"/>
      <point x="447" y="480" type="curve"/>
      <point x="447" y="500" type="line"/>
      <point x="402.861" y="509.919"/>
      <point x="358.723" y="514.918"/>
      <point x="314.584" y="515" type="curve" smooth="yes"/>
      <point x="269.723" y="515.081"/>
      <point x="224.861" y="510.081"/>
      <point x="180" y="500" type="curve"/>
      <point x="130" y="83" type="line"/>
      <point x="53" y="750" type="line"/>
    </contour>
  </outline>
</glyph>
<glyph name="q" format="2">
  <advance width="479"/>
  <unicode hex="0071"/>
  <outline>
    <contour>
      <point x="449" y="500" type="line"/>
      <point x="429" y="500" type="line"/>
      <point x="404" y="-118" type="line"/>
      <point x="331" y="500" type="line"/>
      <point x="255" y="522"/>
      <point x="170" y="522"/>
      <point x="90" y="500" type="curve"/>
      <point x="32" y="284" type="line"/>
      <point x="33" y="177"/>
      <point x="44" y="0"/>
      <point x="202" y="0" type="curve" smooth="yes"/>
      <point x="308" y="0"/>
      <point x="348" y="106"/>
      <point x="359" y="157" type="curve"/>
      <point x="357" y="213" type="line"/>
      <point x="337" y="133"/>
      <point x="303" y="20"/>
      <point x="202" y="20" type="curve" smooth="yes"/>
      <point x="67" y="20"/>
      <point x="54" y="172"/>
      <point x="52" y="284" type="curve"/>
      <point x="106" y="482" type="line"/>
      <point x="168" y="501"/>
      <point x="257" y="501"/>
      <point x="313" y="482" type="curve"/>
      <point x="399" y="-250" type="line"/>
      <point x="419" y="-250" type="line"/>
    </contour>
  </outline>
</glyph>
<glyph name="r" format="2">
  <advance width="351"/>
  <unicode hex="0072"/>
  <outline>
    <contour>
      <point x="30" y="500" type="line"/>
      <point x="88" y="0" type="line"/>
      <point x="108" y="0" type="line"/>
      <point x="166" y="484" type="line"/>
      <point x="198.719" y="496.393"/>
      <point x="230.536" y="499.386"/>
      <point x="264.125" y="498.518" type="curve" smooth="yes"/>
      <point x="296.467" y="497.681"/>
      <point x="320.659" y="493.615"/>
      <point x="361" y="480" type="curve"/>
      <point x="361" y="500" type="line"/>
      <point x="317.465" y="514.995"/>
      <point x="297.461" y="519.602"/>
      <point x="264.124" y="520.225" type="curve" smooth="yes"/>
      <point x="227.87" y="520.903"/>
      <point x="192.368" y="516.005"/>
      <point x="149" y="500" type="curve"/>
      <point x="98" y="83" type="line"/>
      <point x="50" y="500" type="line"/>
    </contour>
  </outline>
</glyph>
<glyph name="s" format="2">
  <advance width="422"/>
  <unicode hex="0073"/>
  <outline>
    <contour>
      <point x="30" y="0" type="line"/>
      <point x="120" y="-31"/>
      <point x="250" y="-31"/>
      <point x="334" y="0" type="curve"/>
      <point x="392" y="228" type="line"/>
      <point x="54" y="293" type="line"/>
      <point x="106" y="484" type="line"/>
      <point x="172" y="509"/>
      <point x="275" y="507"/>
      <point x="355" y="480" type="curve"/>
      <point x="355" y="500" type="line"/>
      <point x="265" y="531"/>
      <point x="173" y="531"/>
      <point x="89" y="500" type="curve"/>
      <point x="30" y="277" type="line"/>
      <point x="367" y="212" type="line"/>
      <point x="317" y="16" type="line"/>
      <point x="251" y="-9"/>
      <point x="120" y="-7"/>
      <point x="30" y="20" type="curve"/>
    </contour>
  </outline>
</glyph>
<glyph name="u" format="2">
  <advance width="445"/>
  <unicode hex="0075"/>
  <outline>
    <contour>
      <point x="415" y="0" type="line"/>
      <point x="357" y="500" type="line"/>
      <point x="337" y="500" type="line"/>
      <point x="279" y="16" type="line"/>
      <point x="213" y="-9"/>
      <point x="123" y="-9"/>
      <point x="54" y="15" type="curve"/>
      <point x="89" y="216" type="line"/>
      <point x="69" y="500" type="line"/>
      <point x="49" y="500" type="line"/>
      <point x="69" y="216" type="line"/>
      <point x="30" y="0" type="line"/>
      <point x="120" y="-31"/>
      <point x="212" y="-31"/>
      <point x="296" y="0" type="curve"/>
      <point x="347" y="417" type="line"/>
      <point x="395" y="0" type="line"/>
    </contour>
  </outline>
</glyph>
<glyph name="v" format="2">
  <advance width="451"/>
  <unicode hex="0076"/>
  <outline>
    <contour>
      <point x="20" y="216" type="line"/>
      <point x="40" y="216" type="line"/>
      <point x="67" y="454" type="line"/>
      <point x="140.066" y="255.367" type="line"/>
      <point x="234" y="0" type="line"/>
      <point x="254" y="0" type="line"/>
      <point x="347.28" y="263.504" type="line"/>
      <point x="431" y="500" type="line"/>
      <point x="410" y="500" type="line"/>
      <point x="328.206" y="269.401" type="line"/>
      <point x="244" y="32" type="line"/>
      <point x="159.521" y="263.207" type="line"/>
      <point x="73" y="500" type="line"/>
      <point x="53" y="500" type="line"/>
    </contour>
  </outline>
</glyph>
<glyph name="w" format="2">
  <advance width="689"/>
  <unicode hex="0077"/>
  <outline>
    <contour>
      <point x="20" y="216" type="line"/>
      <point x="40" y="216" type="line"/>
      <point x="67" y="454" type="line"/>
      <point x="127.594" y="266.861" type="line"/>
      <point x="214" y="0" type="line"/>
      <point x="234" y="0" type="line"/>
      <point x="308.699" y="271.741" type="line"/>
      <point x="361" y="462" type="line"/>
      <point x="415.451" y="269.967" type="line"/>
      <point x="492" y="0" type="line"/>
      <point x="512" y="0" type="line"/>
      <point x="597.327" y="271.742" type="line"/>
      <point x="669" y="500" type="line"/>
      <point x="648" y="500" type="line"/>
      <point x="576.669" y="271.742" type="line"/>
      <point x="503" y="36" type="line"/>
      <point x="436.444" y="271.742" type="line"/>
      <point x="372" y="500" type="line"/>
      <point x="350" y="500" type="line"/>
      <point x="287.389" y="271.742" type="line"/>
      <point x="223" y="37" type="line"/>
      <point x="148.531" y="266.862" type="line"/>
      <point x="73" y="500" type="line"/>
      <point x="53" y="500" type="line"/>
    </contour>
  </outline>
</glyph>
<glyph name="x" format="2">
  <advance width="461"/>
  <unicode hex="0078"/>
  <outline>
    <contour>
      <point x="25" y="284" type="line"/>
      <point x="45" y="284" type="line"/>
      <point x="67" y="466" type="line"/>
      <point x="216.964" y="249.304" type="line"/>
      <point x="35" y="0" type="line"/>
      <point x="61" y="0" type="line"/>
      <point x="229.69" y="232.065" type="line"/>
      <point x="391" y="0" type="line"/>
      <point x="411" y="0" type="line"/>
      <point x="436" y="216" type="line"/>
      <point x="416" y="216" type="line"/>
      <point x="394" y="31" type="line"/>
      <point x="243.433" y="249.913" type="line"/>
      <point x="426" y="500" type="line"/>
      <point x="400" y="500" type="line"/>
      <point x="230.749" y="267.206" type="line"/>
      <point x="70" y="500" type="line"/>
      <point x="50" y="500" type="line"/>
    </contour>
  </outline>
</glyph>
<glyph name="y" format="2">
  <advance width="451"/>
  <unicode hex="0079"/>
  <outline>
    <contour>
      <point x="50" y="216" type="line"/>
      <point x="70" y="216" type="line"/>
      <point x="98" y="454" type="line"/>
      <point x="167.374" y="264.872" type="line"/>
      <point x="266" y="-4" type="line"/>
      <point x="194" y="-211" type="line"/>
      <point x="128" y="-233"/>
      <point x="80" y="-231"/>
      <point x="0" y="-207" type="curve"/>
      <point x="0" y="-227" type="line"/>
      <point x="90" y="-253"/>
      <point x="126" y="-253"/>
      <point x="210" y="-227" type="curve"/>
      <point x="382.416" y="272.388" type="line"/>
      <point x="461" y="500" type="line"/>
      <point x="440" y="500" type="line"/>
      <point x="361.435" y="272.929" type="line"/>
      <point x="276" y="26" type="line"/>
      <point x="188.816" y="264.873" type="line"/>
      <point x="103" y="500" type="line"/>
      <point x="83" y="500" type="line"/>
    </contour>
  </outline>
</glyph>
<glyph name="z" format="2">
  <advance width="374"/>
  <unicode hex="007A"/>
  <outline>
    <contour>
      <point x="335" y="500" type="curve"/>
      <point x="202.688" y="264.832" type="line"/>
      <point x="61" y="13" type="line"/>
      <point x="127" y="-12"/>
      <point x="254" y="-7"/>
      <point x="344" y="20" type="curve"/>
      <point x="344" y="0" type="line"/>
      <point x="254" y="-31"/>
      <point x="114" y="-31"/>
      <point x="30" y="0" type="curve"/>
      <point x="179.24" y="264.833" type="line"/>
      <point x="305" y="488" type="line"/>
      <point x="239" y="513"/>
      <point x="139" y="507"/>
      <point x="59" y="480" type="curve"/>
      <point x="59" y="500" type="line"/>
      <point x="149" y="531"/>
      <point x="251" y="531"/>
    </contour>
  </outline>
</glyph>
<glyph name="braceleft" format="2">
  <advance width="330"/>
  <unicode hex="007B"/>
  <outline>
    <contour>
      <point x="140" y="770" type="line"/>
      <point x="140" y="447.309" type="line"/>
      <point x="60" y="376.642" type="line"/>
      <point x="60" y="356.729" type="line"/>
      <point x="140" y="287.213" type="line"/>
      <point x="140" y="-37" type="line"/>
      <point x="139.784" y="-87" type="line"/>
      <point x="320" y="-87" type="line"/>
      <point x="320" y="-67" type="line"/>
      <point x="160.099" y="-67" type="line"/>
      <point x="160" y="-37" type="line"/>
      <point x="160" y="297.385" type="line"/>
      <point x="80" y="365.881" type="line"/>
      <point x="80" y="368.421" type="line"/>
      <point x="160" y="436.872" type="line"/>
      <point x="160" y="770" type="line"/>
      <point x="160.284" y="800" type="line"/>
      <point x="320" y="800" type="line"/>
      <point x="320" y="820" type="line"/>
      <point x="140.377" y="820" type="line"/>
    </contour>
  </outline>
</glyph>
<glyph name="asciitilde" format="2">
  <advance width="310"/>
  <unicode hex="007E"/>
  <outline>
    <contour>
      <point x="50" y="208" type="line"/>
      <point x="105" y="249.101" type="line"/>
      <point x="195" y="201" type="line"/>
      <point x="250" y="242" type="line"/>
      <point x="250" y="267.318" type="line"/>
      <point x="195" y="226.318" type="line"/>
      <point x="104.821" y="274.318" type="line"/>
      <point x="50" y="233.318" type="line"/>
    </contour>
  </outline>
</glyph>
<glyph name="periodcentered" format="2">
  <advance width="240"/>
  <unicode hex="00B7"/>
  <outline>
    <contour>
      <point x="170" y="207" type="line"/>
      <point x="170" y="297" type="line"/>
      <point x="80" y="297" type="line"/>
      <point x="80" y="207" type="line"/>
    </contour>
  </outline>
</glyph>
<glyph name="cedilla" format="2">
  <advance width="100"/>
  <unicode hex="00B8"/>
  <outline>
    <contour>
      <point x="80" y="-57" type="line"/>
      <point x="80" y="3" type="line"/>
      <point x="40" y="3" type="line"/>
      <point x="40" y="-57" type="line"/>
      <point x="20" y="-132" type="line"/>
      <point x="60" y="-132" type="line"/>
    </contour>
  </outline>
</glyph>
<glyph name="Oslash" format="2">
  <advance width="586"/>
  <unicode hex="00D8"/>
  <outline>
    <component base="O"/>
    <contour>
      <point x="202.826" y="-50" type="line"/>
      <point x="362.204" y="750" type="line"/>
      <point x="383.204" y="750" type="line"/>
      <point x="223.826" y="-50" type="line"/>
    </contour>
  </outline>
</glyph>
<glyph name="aogonek" format="2">
  <advance width="459"/>
  <unicode hex="0105"/>
  <outline>
    <component base="a"/>
    <contour>
      <point x="350.012" y="0.8616" type="line"/>
      <point x="335.784" y="-40.6441" type="line" smooth="yes"/>
      <point x="325.471" y="-70.7312"/>
      <point x="340.89" y="-99.2978"/>
      <point x="373" y="-92" type="curve" smooth="yes"/>
      <point x="417" y="-82" type="line"/>
      <point x="417" y="-62" type="line"/>
      <point x="376" y="-72" type="line" smooth="yes"/>
      <point x="355.619" y="-76.9709"/>
      <point x="347.632" y="-67.4337"/>
      <point x="355.361" y="-44.1929" type="curve" smooth="yes"/>
      <point x="370.012" y="-0.138414" type="line"/>
    </contour>
  </outline>
</glyph>
<glyph name="Iogonek" format="2">
  <advance width="148"/>
  <unicode hex="012E"/>
  <outline>
    <component base="I" xOffset="11"/>
    <contour>
      <point x="51.0119" y="0.8616" type="line"/>
      <point x="36.7844" y="-40.6441" type="line" smooth="yes"/>
      <point x="26.4711" y="-70.7312"/>
      <point x="41.8895" y="-99.2978"/>
      <point x="74" y="-92" type="curve" smooth="yes"/>
      <point x="118" y="-82" type="line"/>
      <point x="118" y="-62" type="line"/>
      <point x="77" y="-72" type="line" smooth="yes"/>
      <point x="56.6192" y="-76.9709"/>
      <point x="48.6317" y="-67.4337"/>
      <point x="56.3608" y="-44.1929" type="curve" smooth="yes"/>
      <point x="71.0119" y="-0.138401" type="line"/>
    </contour>
  </outline>
</glyph>
<glyph name="dotlessi" format="2">
  <advance width="122"/>
  <unicode hex="0131"/>
  <outline>
    <contour>
      <point x="92" y="500" type="line"/>
      <point x="79.13" y="428.72"/>
      <point x="65.87" y="355.28"/>
      <point x="53" y="284" type="curve"/>
      <point x="59.6" y="190.28"/>
      <point x="66.4" y="93.72"/>
      <point x="73" y="0" type="curve"/>
      <point x="53" y="0" type="line"/>
      <point x="46.4" y="93.72"/>
      <point x="39.6" y="190.28"/>
      <point x="33" y="284" type="curve"/>
      <point x="45.54" y="355.28"/>
      <point x="58.46" y="428.72"/>
      <point x="71" y="500" type="curve"/>
    </contour>
  </outline>
</glyph>
<glyph name="Tcedilla" format="2">
  <advance width="440"/>
  <unicode hex="0162"/>
  <outline>
    <component base="T"/>
    <contour>
      <point x="230" y="-39" type="line"/>
      <point x="230" y="1" type="line"/>
      <point x="210" y="1" type="line"/>
      <point x="210" y="-39" type="line"/>
      <point x="190" y="-104" type="line"/>
      <point x="210" y="-104" type="line"/>
    </contour>
  </outline>
</glyph>
<glyph name="tcedilla" format="2">
  <advance width="259"/>
  <unicode hex="0163"/>
  <outline>
    <component base="t"/>
    <contour>
      <point x="88" y="-39" type="line"/>
      <point x="88" y="1" type="line"/>
      <point x="68" y="1" type="line"/>
      <point x="68" y="-39" type="line"/>
      <point x="48" y="-104" type="line"/>
      <point x="68" y="-104" type="line"/>
    </contour>
  </outline>
</glyph>
<glyph name="dotaccent" format="2">
  <advance width="80"/>
  <unicode hex="02D9"/>
  <outline>
    <contour>
      <point x="60" y="710" type="line"/>
      <point x="60" y="750" type="line"/>
      <point x="20" y="750" type="line"/>
      <point x="20" y="710" type="line"/>
    </contour>
  </outline>
</glyph>
<glyph name="ring" format="2">
  <advance width="185"/>
  <unicode hex="02DA"/>
  <outline>
    <contour>
      <point x="30" y="637.5" type="curve" smooth="yes"/>
      <point x="30" y="603.3"/>
      <point x="58.3" y="575"/>
      <point x="92.5" y="575" type="curve" smooth="yes"/>
      <point x="126.7" y="575"/>
      <point x="155" y="603.3"/>
      <point x="155" y="637.5" type="curve" smooth="yes"/>
      <point x="155" y="672.35"/>
      <point x="127.05" y="700"/>
      <point x="92.5" y="700" type="curve" smooth="yes"/>
      <point x="58.3" y="700"/>
      <point x="30" y="671.7"/>
    </contour>
    <contour>
      <point x="51.15" y="638.25" type="curve" smooth="yes"/>
      <point x="51.15" y="661.25"/>
      <point x="70.2" y="680.3"/>
      <point x="93.25" y="680.3" type="curve" smooth="yes"/>
      <point x="116.25" y="680.3"/>
      <point x="135.3" y="661.25"/>
      <point x="135.3" y="638.25" type="curve" smooth="yes"/>
      <point x="135.3" y="615.2"/>
      <point x="116.25" y="596.15"/>
      <point x="93.25" y="596.15" type="curve" smooth="yes"/>
      <point x="70.2" y="596.15"/>
      <point x="51.15" y="615.2"/>
    </contour>
  </outline>
</glyph>
<glyph name="ogonek" format="2">
  <advance width="125"/>
  <unicode hex="02DB"/>
  <outline>
    <contour>
      <point x="38.0119" y="0.8616" type="line"/>
      <point x="23.7844" y="-40.6441" type="line" smooth="yes"/>
      <point x="13.4711" y="-70.7312"/>
      <point x="28.8895" y="-99.2978"/>
      <point x="61" y="-92" type="curve" smooth="yes"/>
      <point x="105" y="-82" type="line"/>
      <point x="105" y="-62" type="line"/>
      <point x="64" y="-72" type="line" smooth="yes"/>
      <point x="43.6192" y="-76.9709"/>
      <point x="35.6317" y="-67.4337"/>
      <point x="43.3608" y="-44.1929" type="curve" smooth="yes"/>
      <point x="58.0119" y="-0.138414" type="line"/>
    </contour>
  </outline>
</glyph>
<glyph name="tilde" format="2">
  <advance width="220"/>
  <unicode hex="02DC"/>
  <outline>
    <contour>
      <point x="20" y="631" type="line"/>
      <point x="75" y="672.101" type="line"/>
      <point x="145" y="624" type="line"/>
      <point x="200" y="665" type="line"/>
      <point x="200" y="690.318" type="line"/>
      <point x="145" y="649.318" type="line"/>
      <point x="74.8209" y="697.318" type="line"/>
      <point x="20" y="656.318" type="line"/>
    </contour>
  </outline>
</glyph>
<glyph name="quoteleft" format="2">
  <advance width="150"/>
  <unicode hex="2018"/>
  <outline>
    <contour>
      <point x="50" y="625" type="line"/>
      <point x="50" y="575" type="line"/>
      <point x="80" y="575" type="line"/>
      <point x="80" y="625" type="line"/>
      <point x="100" y="700" type="line"/>
      <point x="70" y="700" type="line"/>
    </contour>
  </outline>
</glyph>
<glyph name="quotedblleft" format="2">
  <advance width="230"/>
  <unicode hex="201C"/>
  <outline>
    <contour>
      <point x="130" y="625" type="line"/>
      <point x="130" y="575" type="line"/>
      <point x="160" y="575" type="line"/>
      <point x="160" y="625" type="line"/>
      <point x="180" y="700" type="line"/>
      <point x="150" y="700" type="line"/>
    </contour>
    <contour>
      <point x="50" y="625" type="line"/>
      <point x="50" y="575" type="line"/>
      <point x="80" y="575" type="line"/>
      <point x="80" y="625" type="line"/>
      <point x="100" y="700" type="line"/>
      <point x="70" y="700" type="line"/>
    </contour>
  </outline>
</glyph>
<glyph name="quotedblright" format="2">
  <advance width="220"/>
  <unicode hex="201D"/>
  <outline>
    <contour>
      <point x="100" y="650" type="line"/>
      <point x="100" y="700" type="line"/>
      <point x="70" y="700" type="line"/>
      <point x="70" y="650" type="line"/>
      <point x="50" y="575" type="line"/>
      <point x="80" y="575" type="line"/>
    </contour>
    <contour>
      <point x="180" y="650" type="line"/>
      <point x="180" y="700" type="line"/>
      <point x="150" y="700" type="line"/>
      <point x="150" y="650" type="line"/>
      <point x="130" y="575" type="line"/>
      <point x="160" y="575" type="line"/>
    </contour>
  </outline>
</glyph>
<glyph name="quotedblbase" format="2">
  <advance width="230"/>
  <unicode hex="201E"/>
  <outline>
    <contour>
      <point x="100" y="0" type="line"/>
      <point x="100" y="50" type="line"/>
      <point x="70" y="50" type="line"/>
      <point x="70" y="0" type="line"/>
      <point x="50" y="-75" type="line"/>
      <point x="80" y="-75" type="line"/>
    </contour>
    <contour>
      <point x="180" y="0" type="line"/>
      <point x="180" y="50" type="line"/>
      <point x="150" y="50" type="line"/>
      <point x="150" y="0" type="line"/>
      <point x="130" y="-75" type="line"/>
      <point x="160" y="-75" type="line"/>
    </contour>
  </outline>
</glyph>
<glyph name="bullet" format="2">
  <advance width="320"/>
  <unicode hex="2022"/>
  <outline>
    <contour>
      <point x="200" y="242" type="line"/>
      <point x="200" y="322" type="line"/>
      <point x="120" y="322" type="line"/>
      <point x="120" y="242" type="line"/>
    </contour>
  </outline>
</glyph>
<glyph name="perthousand" format="2">
  <advance width="948"/>
  <unicode hex="2030"/>
  <outline>
    <contour>
      <point x="152" y="0" type="line"/>
      <point x="491.348" y="700" type="line"/>
      <point x="514.348" y="700" type="line"/>
      <point x="175" y="0" type="line"/>
    </contour>
    <contour>
      <point x="419.946" y="406.529" type="line"/>
      <point x="488.876" y="406.529" type="line"/>
      <point x="613.994" y="406.529"/>
      <point x="625" y="259.4"/>
      <point x="625" y="174.25" type="curve"/>
      <point x="578.66" y="-3" type="line"/>
      <point x="509.15" y="-3" type="line"/>
      <point x="383.453" y="-3"/>
      <point x="372.447" y="144.129"/>
      <point x="372.447" y="229.858" type="curve"/>
    </contour>
    <contour>
      <point x="434.635" y="386.944" type="line"/>
      <point x="391.612" y="230.437" type="line"/>
      <point x="391.612" y="142.599"/>
      <point x="404.355" y="16.585"/>
      <point x="509.15" y="16.585" type="curve"/>
      <point x="563.392" y="16.585" type="line"/>
      <point x="603.836" y="173.092" type="line"/>
      <point x="603.836" y="260.351"/>
      <point x="593.092" y="386.944"/>
      <point x="488.876" y="386.944" type="curve"/>
    </contour>
    <contour>
      <point x="87.9458" y="700.529" type="line"/>
      <point x="156.876" y="700.529" type="line"/>
      <point x="281.994" y="700.529"/>
      <point x="293" y="553.4"/>
      <point x="293" y="468.25" type="curve"/>
      <point x="246.66" y="291" type="line"/>
      <point x="177.15" y="291" type="line"/>
      <point x="51.4531" y="291"/>
      <point x="40.4474" y="438.129"/>
      <point x="40.4474" y="523.858" type="curve"/>
    </contour>
    <contour>
      <point x="102.635" y="680.944" type="line"/>
      <point x="59.6116" y="524.437" type="line"/>
      <point x="59.6116" y="436.599"/>
      <point x="72.3551" y="310.585"/>
      <point x="177.15" y="310.585" type="curve"/>
      <point x="231.392" y="310.585" type="line"/>
      <point x="271.836" y="467.092" type="line"/>
      <point x="271.836" y="554.351"/>
      <point x="261.092" y="680.944"/>
      <point x="156.876" y="680.944" type="curve"/>
    </contour>
    <contour>
      <point x="702.946" y="406.529" type="line"/>
      <point x="771.876" y="406.529" type="line"/>
      <point x="896.994" y="406.529"/>
      <point x="908" y="259.4"/>
      <point x="908" y="174.25" type="curve"/>
      <point x="861.66" y="-3" type="line"/>
      <point x="792.15" y="-3" type="line"/>
      <point x="666.453" y="-3"/>
      <point x="655.447" y="144.129"/>
      <point x="655.447" y="229.858" type="curve"/>
    </contour>
    <contour>
      <point x="717.635" y="386.944" type="line"/>
      <point x="674.612" y="230.437" type="line"/>
      <point x="674.612" y="142.599"/>
      <point x="687.355" y="16.585"/>
      <point x="792.15" y="16.585" type="curve"/>
      <point x="846.392" y="16.585" type="line"/>
      <point x="886.836" y="173.092" type="line"/>
      <point x="886.836" y="260.351"/>
      <point x="876.092" y="386.944"/>
      <point x="771.876" y="386.944" type="curve"/>
    </contour>
  </outline>
</glyph>
